<?xml version="1.0" encoding="utf-8"?>
<!-- Generator: Adobe Adobe Illustrator 28.5.0, SVG Export Plug-In . SVG Version: 6.00 Build 0)  -->
<svg version="1.1" id="XMLID_00000182522971415901112140000016654223499813989555_"
	 xmlns="http://www.w3.org/2000/svg" xmlns:xlink="http://www.w3.org/1999/xlink" x="0px" y="0px" width="900px" height="400px"
	 viewBox="0 0 900 400" style="enable-background:new 0 0 900 400;" xml:space="preserve">
<style type="text/css">
	.st0{display:none;}
	.st1{display:inline;}
	.st2{fill:#FFFFFF;}
	.st3{fill:#000C5C;}
	.st4{fill:#000C5C;stroke:#FFFFFF;stroke-miterlimit:10;}
</style>
<g class="st0">
	<g class="st1">
		<polygon class="st2" points="617.9,320 616.1,320 616.1,302.4 532.4,302.4 532.4,320 530.6,320 530.6,300.6 617.9,300.6 		"/>
		<polygon class="st2" points="653.9,320 652.1,320 652.1,302.4 641.6,302.4 641.6,290.9 617.9,290.9 617.9,297 616.1,297 
			616.1,289.1 643.4,289.1 643.4,300.6 653.9,300.6 		"/>
		<path class="st2" d="M610.17,296.85c-33.19-78.76-33.08-121.93-33.07-122.36l0.01-0.89h19.56v1.8h-17.75
			c0.17,6.52,2.5,48.57,32.92,120.75L610.17,296.85z"/>
		<path class="st2" d="M622.89,287.16l-1.77-0.31c6.88-39.06-23.64-118.72-23.95-119.52l-0.76-1.97l27.59,11.58l-0.07,0.66
			c-0.03,0.25-2.58,25.23-6.05,39.62l-1.75-0.42c3.13-12.97,5.51-34.66,5.94-38.72l-22.49-9.43
			C604.25,181.22,629.24,251.08,622.89,287.16z"/>
		<path class="st2" d="M580.64,296.76c-9.46-31.36-0.11-74.52-0.02-74.95l1.76,0.39c-0.09,0.43-9.34,43.14-0.02,74.05L580.64,296.76
			z"/>
		<polygon class="st2" points="523.4,320 521.6,320 521.6,317.4 471.6,317.4 471.6,313.9 430.4,313.9 430.4,320 428.6,320 
			428.6,312.1 473.4,312.1 473.4,315.6 523.4,315.6 		"/>
		<polygon class="st2" points="501.4,313 499.6,313 499.6,290.9 453.4,290.9 453.4,310.75 451.6,310.75 451.6,289.1 501.4,289.1 		
			"/>
		<polygon class="st2" points="421.4,320 419.6,320 419.6,282.1 453.4,282.1 453.4,287 451.6,287 451.6,283.9 421.4,283.9 		"/>
		<path class="st2" d="M508.23,313h-1.8c0-106.17-5.93-135.68-8.27-143.18l-3.26,11.96v103.55h-1.8V181.55l0.03-0.12l4.51-16.55
			l1.1,1.61C499.13,167.06,508.23,181.9,508.23,313z"/>
		<polygon class="st2" points="551.23,190.57 511,190.57 511,188.77 549.43,188.77 549.43,185.94 541.19,173.57 502.67,173.57 
			502.67,171.77 542.15,171.77 551.23,185.39 		"/>
		<polygon class="st2" points="511.9,313 510.1,313 510.1,192.43 554.9,192.43 554.9,297.5 553.1,297.5 553.1,194.23 511.9,194.23 
					"/>
		<path class="st2" d="M520.43,313.01c-0.06-4.02-1.39-98.56,8.7-108.81c0.72-0.73,1.52-1.11,2.36-1.11
			c3.53,0,8.63,4.93,12.08,47.58c1.88,23.13,2.31,46.57,2.32,46.81l-1.8,0.03c0-0.23-0.44-23.62-2.31-46.7
			c-3.36-41.44-8.32-45.92-10.29-45.92c-0.35,0-0.7,0.19-1.08,0.57c-7.66,7.77-8.7,73.73-8.19,107.52L520.43,313.01z"/>
		<polygon class="st2" points="480.23,285.67 478.43,285.67 478.43,229.14 478.51,228.97 492.23,198.09 492.23,211.2 483.4,230.43 
			490,230.43 490,232.23 480.6,232.23 490.43,210.8 490.43,206.57 480.23,229.52 		"/>
		<polygon class="st2" points="482.9,215.33 481.1,215.33 481.1,168.11 481.2,167.92 498.9,133.63 498.9,145.23 486.84,167.77 
			494,167.77 494,169.57 483.83,169.57 497.1,144.77 497.1,141.04 482.9,168.55 		"/>
		<polygon class="st2" points="516.57,169.57 502.6,169.57 502.6,111.67 504.4,111.67 504.4,167.77 514.77,167.77 514.77,109.57 
			501,109.57 492.23,123.59 492.23,140 490.43,140 490.43,123.08 500,107.77 516.57,107.77 		"/>
		<polygon class="st2" points="482.9,161.33 481.1,161.33 481.1,130.9 457.1,130.9 457.1,119.77 475.23,119.77 475.23,127 
			473.43,127 473.43,121.57 458.9,121.57 458.9,129.1 482.9,129.1 		"/>
		<polygon class="st2" points="446.13,147.33 444.33,147.33 444.33,126.77 449.43,126.77 449.43,119.77 455.67,119.77 
			455.67,121.57 451.23,121.57 451.23,128.57 446.13,128.57 		"/>
		<polygon class="st2" points="425.9,280 424.1,280 424.1,205.77 431.77,205.77 431.77,159.1 437.1,159.1 437.1,149.1 451.35,149.1 
			451.35,159.1 457.1,159.1 457.1,134 458.9,134 458.9,160.9 449.55,160.9 449.55,150.9 438.9,150.9 438.9,160.9 433.57,160.9 
			433.57,207.57 425.9,207.57 		"/>
		<polygon class="st2" points="435.23,280 433.43,280 433.43,247.43 457.1,247.43 457.1,206.1 476.5,206.1 476.5,207.9 458.9,207.9 
			458.9,249.23 435.23,249.23 		"/>
		<polygon class="st2" points="366.9,320 365.1,320 365.1,304.1 371.1,304.1 371.1,280.43 392,280.43 392,282.23 372.9,282.23 
			372.9,305.9 366.9,305.9 		"/>
		<rect x="379.1" y="285.67" class="st2" width="1.8" height="19.33"/>
		<polygon class="st2" points="425.9,202.33 424.1,202.33 424.1,159.43 427.6,159.43 427.6,150.1 433.36,150.1 430.44,112.74 
			430.43,89.98 392.9,89.98 392.9,167 391.1,167 391.1,88.18 432.23,88.18 432.23,112.67 435.31,151.9 429.4,151.9 429.4,161.23 
			425.9,161.23 		"/>
		<polygon class="st2" points="425.9,85 424.1,85 424.1,81.41 404.23,81.41 404.23,85 402.43,85 402.43,79.61 425.9,79.61 		"/>
		<polygon class="st2" points="321.57,245 319.77,245 319.77,144.81 324.77,144.81 324.77,141.1 374.9,141.1 374.9,146.77 
			379.57,146.77 379.57,166.33 377.77,166.33 377.77,148.57 373.1,148.57 373.1,142.9 326.57,142.9 326.57,146.61 321.57,146.61 		
			"/>
		<polygon class="st2" points="361.57,320 359.77,320 359.77,264.23 332.9,264.23 332.9,311.57 321.57,311.57 321.57,320 
			319.77,320 319.77,309.77 331.1,309.77 331.1,262.43 361.57,262.43 		"/>
		<polygon class="st2" points="377.23,320 375.43,320 375.43,309.77 383.77,309.77 383.77,304.1 395.43,304.1 395.43,285.67 
			397.23,285.67 397.23,305.9 385.57,305.9 385.57,311.57 377.23,311.57 		"/>
		<polygon class="st2" points="262.57,320 260.77,320 260.77,310.77 281.77,310.77 281.77,299.77 311.1,299.77 311.1,251.1 
			355.9,251.1 355.9,259.67 354.1,259.67 354.1,252.9 312.9,252.9 312.9,301.57 283.57,301.57 283.57,312.57 262.57,312.57 		"/>
		<polygon class="st2" points="316.23,320 314.43,320 314.43,311.23 297.9,311.23 297.9,320 296.1,320 296.1,309.43 316.23,309.43 
					"/>
		<rect x="314" y="247.1" class="st2" width="33.67" height="1.8"/>
		<polygon class="st2" points="294.23,297 292.43,297 292.43,242.43 315.33,242.43 315.33,244.23 294.23,244.23 		"/>
		<polygon class="st2" points="240.23,299 238.43,299 238.43,216.77 294.23,216.77 294.23,239.33 292.43,239.33 292.43,218.57 
			240.23,218.57 		"/>
		<polygon class="st2" points="224.9,320 223.1,320 223.1,301.93 242.43,301.93 242.43,278.1 259.23,278.1 259.23,301.93 
			277.67,301.93 277.67,303.73 257.43,303.73 257.43,279.9 244.23,279.9 244.23,303.73 224.9,303.73 		"/>
		<polygon class="st2" points="196.57,298.67 194.77,298.67 194.77,256.41 229.23,257.46 229.23,298.5 227.43,298.5 227.43,259.21 
			196.57,258.26 		"/>
		<polygon class="st2" points="221.23,320 219.43,320 219.43,313.45 206.37,303.73 191.57,303.73 191.57,311.23 185.57,311.23 
			185.57,320 183.77,320 183.77,309.43 189.77,309.43 189.77,301.93 206.96,301.93 221.23,312.55 		"/>
		<polygon class="st2" points="82.57,306.67 80.77,306.67 80.77,262.43 132.57,262.43 132.57,297 130.77,297 130.77,264.23 
			82.57,264.23 		"/>
		<polygon class="st2" points="119.9,320 118.1,320 118.1,311.23 67.23,311.23 67.23,320 65.43,320 65.43,309.43 119.9,309.43 		"/>
		<polygon class="st2" points="132.57,320 130.77,320 130.77,299.77 141.1,299.77 141.1,288.1 190.77,288.1 190.77,280.4 
			183.77,280.4 183.77,272.57 173.57,272.57 173.57,285.9 162.77,285.9 162.77,274.57 152.9,274.57 152.9,284.67 151.1,284.67 
			151.1,272.77 164.57,272.77 164.57,284.1 171.77,284.1 171.77,270.77 185.57,270.77 185.57,278.6 192.57,278.6 192.57,289.9 
			142.9,289.9 142.9,301.57 132.57,301.57 		"/>
		<polygon class="st2" points="211.46,255.33 209.66,255.33 209.66,248.9 200.46,248.9 200.46,255.33 198.66,255.33 198.66,247.1 
			211.46,247.1 		"/>
		<rect x="201.56" y="244.1" class="st2" width="7" height="1.8"/>
		<polygon class="st2" points="205.06,229.33 203.39,242.67 205.06,242.67 206.72,242.67 		"/>
		<polygon class="st2" points="267.23,213 265.43,213 265.43,95.4 240.23,95.4 240.23,213 238.43,213 238.43,93.6 267.23,93.6 		"/>
		<polygon class="st2" points="287.4,213 285.6,213 285.6,170.57 271,170.57 271,168.77 287.4,168.77 		"/>
		<polygon class="st2" points="309.23,240 307.43,240 307.43,182.07 290,182.07 290,180.27 309.23,180.27 		"/>
		<polygon class="st2" points="294.23,176.33 292.43,176.33 292.43,119.77 328.4,119.77 328.4,137.33 326.6,137.33 326.6,121.57 
			294.23,121.57 		"/>
		<polygon class="st2" points="409.57,80.51 407.77,80.51 407.77,74.55 391.2,42.41 392.8,41.59 409.57,74.12 		"/>
		<polygon class="st2" points="422.9,80.51 421.1,80.51 421.1,74.08 430.57,58.86 432.1,59.81 422.9,74.59 		"/>
		<polygon class="st2" points="668.57,320 666.77,320 666.77,293.23 653.9,293.23 653.9,298.33 652.1,298.33 652.1,291.43 
			668.57,291.43 		"/>
		<polygon class="st2" points="716.57,320 714.77,320 714.77,297.4 701.9,297.4 701.9,302.4 695.57,302.4 695.57,307.07 
			683.1,307.07 683.1,295.57 671.33,295.57 671.33,293.77 684.9,293.77 684.9,305.27 693.77,305.27 693.77,300.6 700.1,300.6 
			700.1,295.6 716.57,295.6 		"/>
		<polygon class="st2" points="722.9,320 721.1,320 721.1,276.57 689.23,276.57 689.23,303 687.43,303 687.43,274.77 722.9,274.77 
					"/>
		<polygon class="st2" points="744.9,320 743.1,320 743.1,259.4 729.57,259.4 729.57,320 727.77,320 727.77,257.6 744.9,257.6 		"/>
		<polygon class="st2" points="777.57,320 775.77,320 775.77,289.1 780.77,289.1 780.77,283.23 762.23,283.23 762.23,308.23 
			749.9,308.23 749.9,320 748.1,320 748.1,306.43 760.43,306.43 760.43,281.43 782.57,281.43 782.57,290.9 777.57,290.9 		"/>
		<polygon class="st2" points="830.57,320 828.77,320 828.77,311.65 812.77,311.65 812.77,271.57 787.9,271.57 787.9,320 786.1,320 
			786.1,269.77 814.57,269.77 814.57,309.85 830.57,309.85 		"/>
		<polygon class="st2" points="849.23,320 847.43,320 847.43,307.07 831.77,307.07 831.77,267.57 822.43,267.57 822.43,257.9 
			813.57,257.9 813.57,265.33 811.77,265.33 811.77,256.1 824.23,256.1 824.23,265.77 833.57,265.77 833.57,305.27 849.23,305.27 		
			"/>
		<rect x="94.33" y="267.43" class="st2" width="29.33" height="1.8"/>
		<rect x="92.33" y="273.77" class="st2" width="31.33" height="1.8"/>
		<rect x="90.33" y="280.1" class="st2" width="33.33" height="1.8"/>
		<rect x="88.33" y="286.43" class="st2" width="35.33" height="1.8"/>
		<rect x="86.33" y="292.77" class="st2" width="37.33" height="1.8"/>
		<rect x="89.33" y="299.1" class="st2" width="34.33" height="1.8"/>
		<rect x="147" y="293.67" class="st2" width="2.5" height="7"/>
		<rect x="153.25" y="293.67" class="st2" width="2.5" height="7"/>
		<rect x="159.5" y="293.67" class="st2" width="2.5" height="7"/>
		<rect x="165.75" y="293.67" class="st2" width="2.5" height="7"/>
		<rect x="172" y="293.67" class="st2" width="2.5" height="7"/>
		<rect x="178.25" y="293.67" class="st2" width="2.5" height="7"/>
		<rect x="184.5" y="293.67" class="st2" width="2.5" height="7"/>
		<rect x="136.5" y="306.5" class="st2" width="2.5" height="9.75"/>
		<rect x="143.25" y="306.5" class="st2" width="2.5" height="9.75"/>
		<rect x="150" y="306.5" class="st2" width="2.5" height="9.75"/>
		<rect x="169.88" y="306.5" class="st2" width="2.5" height="9.75"/>
		<rect x="176.62" y="306.5" class="st2" width="2.5" height="9.75"/>
		<rect x="155.75" y="276" class="st2" width="3" height="3"/>
		<rect x="155.75" y="281" class="st2" width="3" height="3"/>
		<rect x="176.38" y="276" class="st2" width="3" height="3"/>
		<rect x="176.38" y="281" class="st2" width="3" height="3"/>
		<polygon class="st2" points="223.15,298.5 221.35,298.5 221.35,267.65 202.46,267.65 202.46,298.5 200.66,298.5 200.66,265.85 
			223.15,265.85 		"/>
		<rect x="210.56" y="272.5" class="st2" width="2.94" height="26.5"/>
		<rect x="215.81" y="272.5" class="st2" width="2.94" height="26.5"/>
		<rect x="194.5" y="306.5" class="st2" width="8.89" height="2.17"/>
		<rect x="194.5" y="310.29" class="st2" width="8.89" height="2.17"/>
		<rect x="194.5" y="314.08" class="st2" width="8.89" height="2.17"/>
		<rect x="228.33" y="306.5" class="st2" width="2.17" height="4.92"/>
		<rect x="233.6" y="306.5" class="st2" width="2.17" height="4.92"/>
		<rect x="238.88" y="306.5" class="st2" width="2.17" height="4.92"/>
		<rect x="228.33" y="313.79" class="st2" width="2.17" height="3.21"/>
		<rect x="233.6" y="313.79" class="st2" width="2.17" height="3.21"/>
		<rect x="238.88" y="313.79" class="st2" width="2.17" height="3.21"/>
		<rect x="246" y="282.5" class="st2" width="8.33" height="1.5"/>
		<rect x="246" y="287.33" class="st2" width="8.33" height="1.5"/>
		<rect x="246" y="292.17" class="st2" width="8.33" height="1.5"/>
		<rect x="246" y="297" class="st2" width="8.33" height="1.5"/>
		<rect x="246" y="306.88" class="st2" width="8.33" height="1.5"/>
		<rect x="246" y="311.71" class="st2" width="8.33" height="1.5"/>
		<rect x="344.83" y="268.33" class="st2" width="2.17" height="3.33"/>
		<rect x="349.67" y="268.33" class="st2" width="2.17" height="3.33"/>
		<rect x="354.5" y="268.33" class="st2" width="2.17" height="3.33"/>
		<rect x="344.83" y="274.33" class="st2" width="2.17" height="3.33"/>
		<rect x="349.67" y="274.33" class="st2" width="2.17" height="3.33"/>
		<rect x="354.5" y="274.33" class="st2" width="2.17" height="3.33"/>
		<rect x="344.83" y="280.33" class="st2" width="2.17" height="3.33"/>
		<rect x="349.67" y="280.33" class="st2" width="2.17" height="3.33"/>
		<rect x="354.5" y="280.33" class="st2" width="2.17" height="3.33"/>
		<rect x="344.83" y="286.33" class="st2" width="2.17" height="3.33"/>
		<rect x="349.67" y="286.33" class="st2" width="2.17" height="3.33"/>
		<rect x="354.5" y="286.33" class="st2" width="2.17" height="3.33"/>
		<rect x="344.83" y="292.33" class="st2" width="2.17" height="3.33"/>
		<rect x="349.67" y="292.33" class="st2" width="2.17" height="3.33"/>
		<rect x="354.5" y="292.33" class="st2" width="2.17" height="3.33"/>
		<rect x="344.83" y="298.33" class="st2" width="2.17" height="3.33"/>
		<rect x="349.67" y="298.33" class="st2" width="2.17" height="3.33"/>
		<rect x="354.5" y="298.33" class="st2" width="2.17" height="3.33"/>
		<rect x="242.17" y="222.5" class="st2" width="18" height="1.33"/>
		<rect x="267.5" y="222.5" class="st2" width="22.5" height="1.33"/>
		<rect x="242.17" y="225.67" class="st2" width="18" height="1.33"/>
		<rect x="267.5" y="225.67" class="st2" width="22.5" height="1.33"/>
		<rect x="242.17" y="228.83" class="st2" width="18" height="1.33"/>
		<rect x="267.5" y="228.83" class="st2" width="22.5" height="1.33"/>
		<rect x="242.17" y="237.58" class="st2" width="18" height="1.33"/>
		<rect x="267.5" y="237.58" class="st2" width="22.5" height="1.33"/>
		<rect x="242.17" y="240.74" class="st2" width="18" height="1.33"/>
		<rect x="267.5" y="240.74" class="st2" width="22.5" height="1.33"/>
		<rect x="242.17" y="249.49" class="st2" width="18" height="1.33"/>
		<rect x="267.5" y="249.49" class="st2" width="22.5" height="1.33"/>
		<rect x="242.17" y="252.66" class="st2" width="18" height="1.33"/>
		<rect x="267.5" y="252.66" class="st2" width="22.5" height="1.33"/>
		<rect x="242.17" y="261.4" class="st2" width="18" height="1.33"/>
		<rect x="267.5" y="261.4" class="st2" width="22.5" height="1.33"/>
		<rect x="242.17" y="264.57" class="st2" width="18" height="1.33"/>
		<rect x="267.5" y="264.57" class="st2" width="22.5" height="1.33"/>
		<rect x="267.5" y="273.31" class="st2" width="22.5" height="1.33"/>
		<rect x="267.5" y="276.48" class="st2" width="22.5" height="1.33"/>
		<rect x="267.5" y="285.22" class="st2" width="22.5" height="1.33"/>
		<rect x="267.5" y="288.39" class="st2" width="22.5" height="1.33"/>
		<rect x="327.5" y="152.11" class="st2" width="44.08" height="1.33"/>
		<rect x="327.5" y="155.28" class="st2" width="44.08" height="1.33"/>
		<rect x="327.5" y="158.45" class="st2" width="44.08" height="1.33"/>
		<rect x="327.5" y="167.19" class="st2" width="44.08" height="1.33"/>
		<rect x="327.5" y="170.36" class="st2" width="44.08" height="1.33"/>
		<rect x="327.5" y="179.1" class="st2" width="44.08" height="1.33"/>
		<rect x="327.5" y="182.27" class="st2" width="44.08" height="1.33"/>
		<rect x="327.5" y="191.01" class="st2" width="44.08" height="1.33"/>
		<rect x="327.5" y="194.18" class="st2" width="44.08" height="1.33"/>
		<rect x="327.5" y="202.92" class="st2" width="44.08" height="1.33"/>
		<rect x="327.5" y="206.09" class="st2" width="44.08" height="1.33"/>
		<rect x="327.5" y="214.83" class="st2" width="44.08" height="1.33"/>
		<rect x="327.5" y="218" class="st2" width="44.08" height="1.33"/>
		<rect x="335" y="148.5" class="st2" width="2.33" height="95"/>
		<rect x="242.17" y="104.61" class="st2" width="18" height="1.33"/>
		<rect x="242.17" y="107.78" class="st2" width="18" height="1.33"/>
		<rect x="242.17" y="110.95" class="st2" width="18" height="1.33"/>
		<rect x="242.17" y="119.69" class="st2" width="18" height="1.33"/>
		<rect x="242.17" y="122.86" class="st2" width="18" height="1.33"/>
		<rect x="242.17" y="131.6" class="st2" width="18" height="1.33"/>
		<rect x="242.17" y="134.77" class="st2" width="18" height="1.33"/>
		<rect x="242.17" y="143.51" class="st2" width="18" height="1.33"/>
		<rect x="242.17" y="146.68" class="st2" width="18" height="1.33"/>
		<rect x="242.17" y="155.42" class="st2" width="18" height="1.33"/>
		<rect x="242.17" y="158.59" class="st2" width="18" height="1.33"/>
		<rect x="242.17" y="167.33" class="st2" width="18" height="1.33"/>
		<rect x="242.17" y="170.5" class="st2" width="18" height="1.33"/>
		<rect x="270.83" y="175.27" class="st2" width="10.83" height="1.33"/>
		<rect x="270.83" y="178.43" class="st2" width="10.83" height="1.33"/>
		<rect x="270.83" y="181.6" class="st2" width="10.83" height="1.33"/>
		<rect x="270.83" y="192.17" class="st2" width="10.83" height="1.33"/>
		<rect x="270.83" y="195.33" class="st2" width="10.83" height="1.33"/>
		<rect x="270.83" y="198.5" class="st2" width="10.83" height="1.33"/>
		<rect x="309.92" y="126.32" class="st2" width="5.42" height="1.89"/>
		<rect x="309.92" y="130.8" class="st2" width="5.42" height="1.89"/>
		<rect x="309.92" y="135.29" class="st2" width="5.42" height="1.89"/>
		<rect x="309.92" y="150.25" class="st2" width="5.42" height="1.89"/>
		<rect x="309.92" y="154.73" class="st2" width="5.42" height="1.89"/>
		<rect x="309.92" y="159.22" class="st2" width="5.42" height="1.89"/>
		<rect x="311.71" y="185.53" class="st2" width="5.42" height="1.89"/>
		<rect x="311.71" y="190.01" class="st2" width="5.42" height="1.89"/>
		<rect x="311.71" y="194.5" class="st2" width="5.42" height="1.89"/>
		<rect x="311.71" y="209.46" class="st2" width="5.42" height="1.89"/>
		<rect x="311.71" y="213.94" class="st2" width="5.42" height="1.89"/>
		<rect x="311.71" y="218.43" class="st2" width="5.42" height="1.89"/>
		<rect x="249.67" y="101" class="st2" width="2.33" height="95"/>
		<rect x="299" y="186.1" class="st2" width="2.33" height="51.73"/>
		<rect x="305" y="124.65" class="st2" width="2.33" height="51.73"/>
		<rect x="299" y="248" class="st2" width="2.33" height="7.33"/>
		<rect x="299" y="260.9" class="st2" width="2.33" height="7.33"/>
		<rect x="299" y="273.8" class="st2" width="2.33" height="7.33"/>
		<rect x="299" y="286.7" class="st2" width="2.33" height="7.33"/>
		<rect x="315.33" y="255.33" class="st2" width="34.21" height="4"/>
		<rect x="315.33" y="263.23" class="st2" width="7.54" height="4"/>
		<rect x="315.33" y="271.13" class="st2" width="7.54" height="4"/>
		<rect x="315.33" y="279.03" class="st2" width="7.54" height="4"/>
		<rect x="315.33" y="286.93" class="st2" width="7.54" height="4"/>
		<rect x="315.33" y="294.83" class="st2" width="7.54" height="4"/>
		<polygon class="st2" points="387.23,274.67 385.43,274.67 385.43,250.77 387.77,250.77 387.77,226.1 389.77,226.1 389.77,213.04 
			393.1,213.04 393.1,195.49 395.43,195.49 395.43,182.7 401.77,182.7 401.77,170.36 403.57,170.36 403.57,184.5 397.23,184.5 
			397.23,197.29 394.9,197.29 394.9,214.84 391.57,214.84 391.57,227.9 389.57,227.9 389.57,252.57 387.23,252.57 		"/>
		<polygon class="st2" points="393.23,274.67 391.43,274.67 391.43,250.77 393.77,250.77 393.77,226.1 395.77,226.1 395.77,213.04 
			399.1,213.04 399.1,195.49 401.43,195.49 401.43,182.7 407.77,182.7 407.77,170.36 409.57,170.36 409.57,184.5 403.23,184.5 
			403.23,197.29 400.9,197.29 400.9,214.84 397.57,214.84 397.57,227.9 395.57,227.9 395.57,252.57 393.23,252.57 		"/>
		<rect x="406.33" y="102.33" class="st2" width="2.33" height="63.33"/>
		
			<rect x="409.58" y="98.86" transform="matrix(6.123234e-17 -1 1 6.123234e-17 296.6377 524.8624)" class="st2" width="2.33" height="30.5"/>
		<rect x="416.57" y="130.8" class="st2" width="2.43" height="34.86"/>
		<rect x="464.33" y="135.43" class="st2" width="2.17" height="67.49"/>
		<rect x="468.92" y="135.43" class="st2" width="2.17" height="67.49"/>
		<rect x="473.5" y="135.43" class="st2" width="2.17" height="67.49"/>
		<rect x="464.33" y="212.72" class="st2" width="2.17" height="72.95"/>
		<rect x="468.92" y="212.72" class="st2" width="2.17" height="72.95"/>
		<rect x="473.5" y="212.72" class="st2" width="2.17" height="72.95"/>
		<rect x="438.29" y="165.86" class="st2" width="2.17" height="77.47"/>
		<rect x="442.88" y="165.86" class="st2" width="2.17" height="77.47"/>
		<rect x="447.46" y="165.86" class="st2" width="2.17" height="77.47"/>
		<rect x="524.81" y="220.93" class="st2" width="14.33" height="1.8"/>
		<rect x="522.41" y="248.29" class="st2" width="20.19" height="1.8"/>
		<rect x="521.25" y="279.1" class="st2" width="23.22" height="1.8"/>
		<rect x="578.34" y="180.27" class="st2" width="16.16" height="1.8"/>
		<rect x="578.9" y="185.87" class="st2" width="19.1" height="1.8"/>
		<rect x="580.42" y="196.44" class="st2" width="12.25" height="1.8"/>
		<rect x="582.15" y="205.86" class="st2" width="23.18" height="1.8"/>
		<rect x="585.39" y="220.27" class="st2" width="9.11" height="1.8"/>
		<rect x="587.3" y="227.69" class="st2" width="18.03" height="1.8"/>
		<rect x="590.67" y="240.77" class="st2" width="21.67" height="1.8"/>
		<rect x="595.39" y="254.43" class="st2" width="15.61" height="1.8"/>
		<rect x="598.14" y="262.43" class="st2" width="12.86" height="1.8"/>
		<rect x="601.15" y="270.77" class="st2" width="11.85" height="1.8"/>
		<rect x="604.32" y="279.1" class="st2" width="10.02" height="1.8"/>
		<rect x="578.34" y="247.1" class="st2" width="8.96" height="1.8"/>
		<rect x="577.28" y="256.43" class="st2" width="13.39" height="1.8"/>
		<rect x="577.28" y="262.43" class="st2" width="6.7" height="1.8"/>
		<rect x="577.28" y="270.77" class="st2" width="19.04" height="1.8"/>
		<rect x="578" y="277.28" class="st2" width="7.39" height="1.8"/>
		<rect x="578.9" y="285.43" class="st2" width="19.23" height="1.8"/>
		<rect x="602.37" y="178.2" class="st2" width="8.63" height="1.8"/>
		<rect x="605.33" y="187.01" class="st2" width="11.67" height="1.8"/>
		<rect x="606.68" y="192.43" class="st2" width="6.32" height="1.8"/>
		<rect x="609.33" y="199.73" class="st2" width="7.67" height="1.8"/>
		<path class="st2" d="M511.9,144.9h-6.13v-11.8h6.13V144.9z M507.57,143.1h2.53v-8.2h-2.53V143.1z"/>
		<path class="st2" d="M437.4,301.23h-6.13v-11.8h6.13V301.23z M433.07,299.43h2.53v-8.2h-2.53V299.43z"/>
		<polygon class="st2" points="490.9,313 489.1,313 489.1,296.57 458.9,296.57 458.9,309.33 457.1,309.33 457.1,294.77 
			490.9,294.77 		"/>
		<polygon class="st2" points="417.23,317.4 401.77,317.4 401.77,311.65 390,311.65 390,309.85 403.57,309.85 403.57,315.6 
			415.43,315.6 415.43,305.9 400.43,305.9 400.43,283.9 395.77,283.9 395.77,278.57 377.77,278.57 377.77,168.77 420.5,168.77 
			420.5,170.57 379.57,170.57 379.57,276.77 397.57,276.77 397.57,282.1 402.23,282.1 402.23,304.1 417.23,304.1 		"/>
		<rect x="790.33" y="273.67" class="st2" width="1.77" height="10"/>
		<rect x="795.19" y="273.67" class="st2" width="1.77" height="10"/>
		<rect x="800.04" y="273.67" class="st2" width="1.77" height="10"/>
		<rect x="804.9" y="273.67" class="st2" width="1.77" height="10"/>
		<rect x="790.33" y="287.33" class="st2" width="1.77" height="4.5"/>
		<rect x="795.19" y="287.33" class="st2" width="1.77" height="4.5"/>
		<rect x="800.04" y="287.33" class="st2" width="1.77" height="4.5"/>
		<rect x="804.9" y="287.33" class="st2" width="1.77" height="4.5"/>
		<rect x="790.33" y="307.33" class="st2" width="1.77" height="4.5"/>
		<rect x="795.19" y="307.33" class="st2" width="1.77" height="4.5"/>
		<rect x="800.04" y="307.33" class="st2" width="1.77" height="4.5"/>
		<rect x="804.9" y="307.33" class="st2" width="1.77" height="4.5"/>
		<polygon class="st2" points="749.9,304 748.1,304 748.1,256.43 762.57,256.43 762.57,278.67 760.77,278.67 760.77,258.23 
			749.9,258.23 		"/>
		<rect x="764.43" y="282.33" class="st2" width="1.8" height="34.33"/>
		<rect x="827.77" y="266.67" class="st2" width="1.8" height="37.33"/>
		<rect x="818.67" y="270.67" class="st2" width="6.33" height="3"/>
		<rect x="818.67" y="277.17" class="st2" width="6.33" height="3"/>
		<rect x="818.67" y="283.67" class="st2" width="6.33" height="3"/>
		<rect x="818.67" y="290.17" class="st2" width="6.33" height="3"/>
		<rect x="818.67" y="296.67" class="st2" width="6.33" height="3"/>
		<rect x="732.33" y="262.67" class="st2" width="6.33" height="3"/>
		<rect x="732.33" y="269.17" class="st2" width="6.33" height="3"/>
		<rect x="732.33" y="275.67" class="st2" width="6.33" height="3"/>
		<rect x="732.33" y="282.17" class="st2" width="6.33" height="3"/>
		<rect x="732.33" y="288.67" class="st2" width="6.33" height="3"/>
		<rect x="732.33" y="302.58" class="st2" width="6.33" height="3"/>
		<rect x="732.33" y="309.08" class="st2" width="6.33" height="3"/>
		<rect x="623.03" y="296.67" class="st2" width="2.64" height="23.33"/>
		<rect x="629.33" y="296.67" class="st2" width="2.64" height="23.33"/>
		<rect x="635.64" y="296.67" class="st2" width="2.64" height="23.33"/>
		<polygon class="st2" points="705.57,320 703.77,320 703.77,311.48 696.9,311.48 696.9,320 695.1,320 695.1,309.68 705.57,309.68 
					"/>
	</g>
</g>
<g>
	<polygon class="st3" points="859.11,329.86 63.88,329.86 63.88,328.62 857.86,328.62 857.86,320.3 36.75,320.3 36.75,312.36 
		881.22,312.36 881.22,305 19,305 19,303.76 882.46,303.76 882.46,313.6 37.99,313.6 37.99,319.05 859.11,319.05 	"/>
	<g>
		<polygon class="st3" points="22.15,299 20.35,299 20.35,293.35 27.35,293.35 27.35,286.85 32.85,286.85 32.85,279.6 51.9,279.6 
			51.9,290.75 50.1,290.75 50.1,281.4 34.65,281.4 34.65,288.65 29.15,288.65 29.15,295.15 22.15,295.15 		"/>
		<polygon class="st3" points="81.65,299 79.85,299 79.85,285.9 55.65,285.9 55.65,294.65 38.4,294.65 38.4,299 36.6,299 
			36.6,292.85 53.85,292.85 53.85,284.1 81.65,284.1 		"/>
		<polygon class="st3" points="80.47,282.36 68.68,278.52 70.16,275.86 68,273.37 65.84,275.86 67.32,278.52 55.53,282.36 
			54.97,280.64 64.68,277.48 63.66,275.64 68,270.63 72.34,275.64 71.32,277.48 81.03,280.64 		"/>
		<polygon class="st3" points="30.4,284 28.6,284 28.6,265.1 48.4,265.1 48.4,277.25 46.6,277.25 46.6,266.9 30.4,266.9 		"/>
		<polygon class="st3" points="44.4,262.83 42.6,262.83 42.6,199.27 83.07,199.27 83.07,243.5 81.27,243.5 81.27,201.07 
			44.4,201.07 		"/>
		<polygon class="st3" points="76.23,276.25 74.43,276.25 74.43,245.93 88.27,245.93 88.27,237.43 99.57,237.43 99.57,241.1 
			103.07,241.1 103.07,243.27 106.23,243.27 106.23,246.1 116.9,246.1 116.9,262.83 115.1,262.83 115.1,247.9 104.43,247.9 
			104.43,245.07 101.27,245.07 101.27,242.9 97.77,242.9 97.77,239.23 90.07,239.23 90.07,247.73 76.23,247.73 		"/>
		<polygon class="st3" points="67.9,198.17 66.1,198.17 66.1,193.9 58.57,193.9 58.57,198.17 56.77,198.17 56.77,192.1 67.9,192.1 
					"/>
		<rect x="49.5" y="193.35" class="st3" width="5.75" height="1.8"/>
		<rect x="49.5" y="195.93" class="st3" width="5.75" height="1.8"/>
		<polygon class="st3" points="277.57,299 275.77,299 275.77,272.9 236.57,272.9 236.57,299 234.77,299 234.77,271.1 277.57,271.1 
					"/>
		<polygon class="st3" points="295.23,299 293.43,299 293.43,255.9 271.9,255.9 271.9,268 270.1,268 270.1,254.1 295.23,254.1 		"/>
		<polygon class="st3" points="236.65,268.67 234.85,268.67 234.85,262.54 237.77,259.63 237.77,255.52 252.96,255.52 256.54,259.1 
			268,259.1 268,260.9 255.79,260.9 252.21,257.32 239.57,257.32 239.57,260.37 236.65,263.29 		"/>
		<polygon class="st3" points="263.79,256.42 261.99,256.42 261.99,248.9 258.13,248.9 258.13,232.4 252.98,232.4 252.98,220.23 
			241.67,220.23 241.67,218.43 254.78,218.43 254.78,230.6 259.93,230.6 259.93,247.1 263.79,247.1 		"/>
		<polygon class="st3" points="212.57,260.67 210.77,260.67 210.77,215.77 239.57,215.77 239.57,225.1 244.57,225.1 244.57,253 
			242.77,253 242.77,226.9 237.77,226.9 237.77,217.57 212.57,217.57 		"/>
		<polygon class="st3" points="201.9,299 200.1,299 200.1,276.1 231.67,276.1 231.67,277.9 201.9,277.9 		"/>
		<polygon class="st3" points="214.57,273.33 212.77,273.33 212.77,264.9 201.9,264.9 201.9,273.33 200.1,273.33 200.1,263.1 
			214.57,263.1 		"/>
		<polygon class="st3" points="193.57,299 191.77,299 191.77,272.9 177.1,272.9 177.1,261.64 186.77,261.64 186.77,249.1 
			200.1,249.1 200.1,241.1 207.33,241.1 207.33,242.9 201.9,242.9 201.9,250.9 188.57,250.9 188.57,263.44 178.9,263.44 
			178.9,271.1 193.57,271.1 		"/>
		<polygon class="st3" points="189.9,246.33 188.1,246.33 188.1,224.43 205.23,224.43 205.23,238.67 203.43,238.67 203.43,226.23 
			189.9,226.23 		"/>
		<polygon class="st3" points="183.9,259.67 182.1,259.67 182.1,240.9 177.1,240.9 177.1,234.41 167.57,232.59 167.57,242.9 
			164.57,242.9 164.57,255 162.77,255 162.77,241.1 165.77,241.1 165.77,230.41 178.9,232.92 178.9,239.1 183.9,239.1 		"/>
		<polygon class="st3" points="141.9,299 140.1,299 140.1,272.9 101.23,272.9 101.23,299 99.43,299 99.43,271.1 141.9,271.1 		"/>
		<polygon class="st3" points="146.23,299 144.43,299 144.43,281.6 159.77,281.6 159.77,261.64 169.67,261.64 169.67,263.44 
			161.57,263.44 161.57,283.4 146.23,283.4 		"/>
		<polygon class="st3" points="152.57,278.67 150.77,278.67 150.77,261.57 129.9,261.57 129.9,268.67 128.1,268.67 128.1,259.77 
			152.57,259.77 		"/>
		<polygon class="st3" points="174.23,299 172.43,299 172.43,258.69 154.1,258.69 154.1,239.57 148.8,239.57 143.9,237.25 
			143.9,239.57 138.57,239.57 138.57,253.81 126.9,247.81 126.9,254.23 121.57,254.23 121.57,267.9 115,267.9 115,266.1 
			119.77,266.1 119.77,252.43 125.1,252.43 125.1,244.86 136.77,250.86 136.77,237.77 142.1,237.77 142.1,234.41 149.2,237.77 
			155.9,237.77 155.9,256.89 174.23,256.89 		"/>
		<polygon class="st3" points="301.9,264 300.1,264 300.1,218.04 296.77,214.71 296.77,212.23 279.9,212.23 279.9,215.57 
			274.57,215.57 274.57,236.73 267.9,236.73 267.9,256.42 266.1,256.42 266.1,234.93 272.77,234.93 272.77,213.77 278.1,213.77 
			278.1,210.43 298.57,210.43 298.57,213.96 301.9,217.29 		"/>
		<polygon class="st3" points="300.23,299 298.43,299 298.43,266.52 308.77,266.52 308.77,261.64 324.9,261.64 324.9,273.33 
			323.1,273.33 323.1,263.44 310.57,263.44 310.57,268.32 300.23,268.32 		"/>
		<polygon class="st3" points="332.9,272 331.1,272 331.1,194.57 301.9,194.57 301.9,211.33 300.1,211.33 300.1,192.77 
			332.9,192.77 		"/>
		<polygon class="st3" points="353.57,226 351.77,226 351.77,212.23 335.33,212.23 335.33,210.43 353.57,210.43 		"/>
		<polygon class="st3" points="373.86,272 372.06,272 372.06,239.23 344.52,239.23 344.52,269.67 342.73,269.67 342.73,237.43 
			373.86,237.43 		"/>
		<path class="st3" d="M371.44,237.67h-1.8c0-4.47-5.09-8.1-11.35-8.1s-11.35,3.63-11.35,8.1h-1.8c0-5.46,5.9-9.9,13.15-9.9
			C365.54,227.77,371.44,232.21,371.44,237.67z"/>
		<polygon class="st3" points="383.9,249 382.1,249 382.1,226.23 371.44,226.23 371.44,230.33 369.64,230.33 369.64,224.43 
			383.9,224.43 		"/>
		<polygon class="st3" points="379.9,272 378.1,272 378.1,251.43 391,251.43 391,253.23 379.9,253.23 		"/>
		<polygon class="st3" points="406.9,272.25 405.1,272.25 405.1,233.73 397.43,233.73 397.43,226.23 393.9,226.23 393.9,232.4 
			390.9,232.4 390.9,249 389.1,249 389.1,230.6 392.1,230.6 392.1,224.43 399.23,224.43 399.23,231.93 406.9,231.93 		"/>
		<g>
			<polygon class="st3" points="314.57,191 312.77,191 312.77,186.18 308.9,183.93 305.82,172.77 319,172.77 319,174.57 
				308.18,174.57 310.44,182.74 314.57,185.15 			"/>
		</g>
		<g>
			<polygon class="st3" points="325.23,191 323.43,191 323.43,185.15 327.56,182.74 329.82,174.57 319,174.57 319,172.77 
				332.18,172.77 329.1,183.93 325.23,186.18 			"/>
		</g>
		<rect x="311.67" y="177.1" class="st3" width="18.14" height="1.8"/>
		<rect x="316.5" y="181.43" class="st3" width="11.83" height="1.8"/>
		<polygon class="st3" points="325.9,173.67 324.1,173.67 324.1,169.23 313.9,169.23 313.9,173.67 312.1,173.67 312.1,167.43 
			325.9,167.43 		"/>
		<polygon class="st3" points="319,142 316.5,168.33 319,168.33 321.5,168.33 		"/>
		<polygon class="st3" points="568.57,299 566.77,299 566.77,283.57 324.9,283.57 324.9,299 323.1,299 323.1,281.77 568.57,281.77 
					"/>
		<path class="st3" d="M336.23,282.96h-1.8v-4.17c0-1.87-1.52-3.39-3.39-3.39c-1.87,0-3.39,1.52-3.39,3.39v4.17h-1.8v-4.17
			c0-2.86,2.33-5.19,5.19-5.19c2.86,0,5.19,2.33,5.19,5.19V282.96z"/>
		<path class="st3" d="M344.82,282.96h-1.8v-4.17c0-1.87-1.52-3.39-3.39-3.39c-1.87,0-3.39,1.52-3.39,3.39v4.17h-1.8v-4.17
			c0-2.86,2.33-5.19,5.19-5.19s5.19,2.33,5.19,5.19V282.96z"/>
		<path class="st3" d="M353.4,282.96h-1.8v-4.17c0-1.87-1.52-3.39-3.39-3.39c-1.87,0-3.39,1.52-3.39,3.39v4.17h-1.8v-4.17
			c0-2.86,2.33-5.19,5.19-5.19s5.19,2.33,5.19,5.19V282.96z"/>
		<path class="st3" d="M361.98,282.96h-1.8v-4.17c0-1.87-1.52-3.39-3.39-3.39c-1.87,0-3.39,1.52-3.39,3.39v4.17h-1.8v-4.17
			c0-2.86,2.33-5.19,5.19-5.19c2.86,0,5.19,2.33,5.19,5.19V282.96z"/>
		<path class="st3" d="M370.57,282.96h-1.8v-4.17c0-1.87-1.52-3.39-3.39-3.39c-1.87,0-3.39,1.52-3.39,3.39v4.17h-1.8v-4.17
			c0-2.86,2.33-5.19,5.19-5.19s5.19,2.33,5.19,5.19V282.96z"/>
		<path class="st3" d="M379.15,282.96h-1.8v-4.17c0-1.87-1.52-3.39-3.39-3.39c-1.87,0-3.39,1.52-3.39,3.39v4.17h-1.8v-4.17
			c0-2.86,2.33-5.19,5.19-5.19s5.19,2.33,5.19,5.19V282.96z"/>
		<path class="st3" d="M387.73,282.96h-1.8v-4.17c0-1.87-1.52-3.39-3.39-3.39c-1.87,0-3.39,1.52-3.39,3.39v4.17h-1.8v-4.17
			c0-2.86,2.33-5.19,5.19-5.19c2.86,0,5.19,2.33,5.19,5.19V282.96z"/>
		<path class="st3" d="M396.32,282.96h-1.8v-4.17c0-1.87-1.52-3.39-3.39-3.39c-1.87,0-3.39,1.52-3.39,3.39v4.17h-1.8v-4.17
			c0-2.86,2.33-5.19,5.19-5.19c2.86,0,5.19,2.33,5.19,5.19V282.96z"/>
		<path class="st3" d="M404.9,282.96h-1.8v-4.17c0-1.87-1.52-3.39-3.39-3.39c-1.87,0-3.39,1.52-3.39,3.39v4.17h-1.8v-4.17
			c0-2.86,2.33-5.19,5.19-5.19s5.19,2.33,5.19,5.19V282.96z"/>
		<path class="st3" d="M414.4,282.73h-1.8v-16.33l0.85-0.04c0.18-0.01,18.32-0.83,38.96,7.25H553.4v6.15h-1.8v-4.35h-99.53
			l-0.16-0.06c-17.81-7-33.71-7.24-37.51-7.21V282.73z"/>
		<path class="st3" d="M471.9,272h-1.8v-17.89c-11.84,8.48-23.17,11.81-33.69,9.9c-10.18-1.85-16.94-8.1-20.19-11.84l1.92,11.69
			l-1.78,0.29l-3.21-19.5l2.35,3.66c0.07,0.11,7.49,11.45,21.24,13.93c10.44,1.88,21.78-1.69,33.71-10.63l1.44-1.08V272z"/>
		<path class="st3" d="M481.4,272h-1.8v-14.21c-2.47,3.73-4.95,4.56-5.08,4.6l-0.54-1.72l0.27,0.86l-0.28-0.86
			c0.03-0.01,3.19-1.14,5.71-6.79l1.72-3.86V272z"/>
		<path class="st3" d="M490.15,272h-1.8v-14.21c-2.47,3.73-4.95,4.56-5.08,4.6l-0.54-1.72l0.27,0.86l-0.28-0.86
			c0.03-0.01,3.19-1.14,5.71-6.79l1.72-3.86V272z"/>
		<path class="st3" d="M498.9,272h-1.8v-14.21c-2.47,3.73-4.95,4.56-5.08,4.6l-0.54-1.72l0.27,0.86l-0.28-0.86
			c0.03-0.01,3.19-1.14,5.71-6.79l1.72-3.86V272z"/>
		<path class="st3" d="M507.65,272h-1.8v-14.21c-2.47,3.73-4.95,4.56-5.08,4.6l-0.54-1.72l0.27,0.86l-0.28-0.86
			c0.03-0.01,3.19-1.14,5.71-6.79l1.72-3.86V272z"/>
		<rect x="510.75" y="263.1" class="st3" width="39.5" height="1.8"/>
		<rect x="510.75" y="267.6" class="st3" width="39.5" height="1.8"/>
		<polygon class="st3" points="406.9,228.67 405.1,228.67 405.1,178.85 412.6,178.85 412.6,172.77 443.77,172.77 443.77,201.6 
			445.5,201.6 445.5,218.17 443.7,218.17 443.7,203.4 441.98,203.4 441.98,174.57 414.4,174.57 414.4,180.65 406.9,180.65 		"/>
		<polygon class="st3" points="434.9,257 433.1,257 433.1,220.85 447.35,220.85 447.35,210.43 456.9,210.43 456.9,213.5 
			455.1,213.5 455.1,212.23 449.15,212.23 449.15,222.65 434.9,222.65 		"/>
		<polygon class="st3" points="468.4,250 466.6,250 466.6,217.65 454.4,217.65 454.4,222.25 452.6,222.25 452.6,215.85 
			468.4,215.85 		"/>
		<polygon class="st3" points="487.03,215.75 485.22,215.75 485.22,203.65 461.4,203.65 461.4,213.25 459.6,213.25 459.6,201.85 
			487.03,201.85 		"/>
		<polygon class="st3" points="507.65,246.5 505.85,246.5 505.85,220.07 481.4,220.07 481.4,246.5 479.6,246.5 479.6,218.27 
			507.65,218.27 		"/>
		<polygon class="st3" points="531.4,251.33 529.6,251.33 529.6,187.65 521.85,187.65 521.85,183.23 505.65,183.23 505.65,187.65 
			498.9,187.65 498.9,214.4 494.22,214.4 492.65,209.62 492.65,215.75 490.85,215.75 490.85,198.38 495.53,212.6 497.1,212.6 
			497.1,185.85 503.85,185.85 503.85,181.43 523.65,181.43 523.65,185.85 531.4,185.85 		"/>
		<polygon class="st3" points="538.9,260.4 537.1,260.4 537.1,256.07 509.75,256.07 509.75,254.27 538.9,254.27 		"/>
		<polygon class="st3" points="538.9,251 537.1,251 537.1,215.15 533.25,215.15 533.25,213.35 538.9,213.35 		"/>
		<polygon class="st3" points="553.4,246.25 551.6,246.25 551.6,238.57 549.35,238.57 549.35,235.07 545.6,235.07 545.6,205.73 
			540.6,205.73 540.6,202.07 536.53,202.07 536.53,209.4 533.25,209.4 533.25,207.6 534.72,207.6 534.72,200.27 542.4,200.27 
			542.4,203.93 547.4,203.93 547.4,233.27 551.15,233.27 551.15,236.77 553.4,236.77 		"/>
		<polygon class="st3" points="548.9,260.4 547.1,260.4 547.1,251.43 551.6,251.43 551.6,249.1 558.35,249.1 558.35,237.43 
			562.35,237.43 562.35,212.6 566.77,212.6 566.77,206.6 569.35,206.6 569.35,200.27 578.9,200.27 578.9,206.6 584.9,206.6 
			584.9,213.25 583.1,213.25 583.1,208.4 577.1,208.4 577.1,202.07 571.15,202.07 571.15,208.4 568.57,208.4 568.57,214.4 
			564.15,214.4 564.15,239.23 560.15,239.23 560.15,250.9 553.4,250.9 553.4,253.23 548.9,253.23 		"/>
		<polygon class="st3" points="612.15,299 610.35,299 610.35,213.4 590.65,213.4 590.65,217.65 584.9,217.65 584.9,222.65 
			576.15,222.65 576.15,235.07 569.9,235.07 569.9,263.07 557.65,263.07 557.65,279.75 555.85,279.75 555.85,261.27 568.1,261.27 
			568.1,233.27 574.35,233.27 574.35,220.85 583.1,220.85 583.1,215.85 588.85,215.85 588.85,211.6 612.15,211.6 		"/>
		<polygon class="st3" points="639.15,290.83 637.35,290.83 637.35,174.57 598.15,174.57 598.15,208.75 596.35,208.75 
			596.35,172.77 639.15,172.77 		"/>
		<polygon class="st3" points="789.4,299 787.6,299 787.6,296.65 653.6,296.65 653.6,289.93 754.85,289.93 754.85,276.4 
			712.65,276.4 712.65,283.57 648.4,283.57 648.4,295.15 618.65,295.15 618.65,299 616.85,299 616.85,293.35 646.6,293.35 
			646.6,281.77 710.85,281.77 710.85,274.6 756.65,274.6 756.65,291.73 655.4,291.73 655.4,294.85 789.4,294.85 		"/>
		<polygon class="st3" points="658.15,279.75 656.35,279.75 656.35,185.65 640.5,185.65 640.5,183.85 658.15,183.85 		"/>
		<polygon class="st3" points="697.4,279.75 695.6,279.75 695.6,276.4 686.85,276.4 686.85,268.12 679.85,268.12 679.85,261.3 
			677.6,261.3 677.6,190.65 660,190.65 660,188.85 679.4,188.85 679.4,259.5 681.65,259.5 681.65,266.32 688.65,266.32 
			688.65,274.6 697.4,274.6 		"/>
		<polygon class="st3" points="692.4,271.25 690.6,271.25 690.6,202.07 682.5,202.07 682.5,200.27 692.4,200.27 		"/>
		<polygon class="st3" points="722.9,272.5 721.1,272.5 721.1,190.65 692.4,190.65 692.4,198.5 690.6,198.5 690.6,188.85 
			722.9,188.85 		"/>
		<polygon class="st3" points="768.9,291.75 767.1,291.75 767.1,266.15 757.85,266.15 757.85,256.65 750.85,256.65 750.85,169.15 
			709.65,169.15 709.65,186.75 707.85,186.75 707.85,167.35 752.65,167.35 752.65,254.85 759.65,254.85 759.65,264.35 768.9,264.35 
					"/>
		<polygon class="st3" points="750.4,165.5 748.6,165.5 748.6,161.9 730.9,161.9 730.9,165.5 729.1,165.5 729.1,160.1 750.4,160.1 
					"/>
		<polygon class="st3" points="794.65,299 792.85,299 792.85,258.68 785.6,258.68 785.6,174.37 777.64,172.4 765.88,172.4 
			759.4,174.34 759.4,252.33 757.6,252.33 757.6,173 765.75,170.6 777.97,170.63 787.4,172.96 787.4,256.88 794.65,256.88 		"/>
		<polygon class="st3" points="814.9,299 813.1,299 813.1,280.65 801.85,280.65 801.85,249.9 792.85,249.9 792.85,202.07 
			789.75,202.07 789.75,200.27 794.65,200.27 794.65,248.1 803.65,248.1 803.65,278.85 814.9,278.85 		"/>
		<polygon class="st3" points="839.15,299 837.35,299 837.35,276.4 813,276.4 813,274.6 839.15,274.6 		"/>
		<polygon class="st3" points="807.15,246.65 801.88,246.65 801.88,244.85 805.35,244.85 805.35,198.1 827.5,198.1 827.5,199.9 
			807.15,199.9 		"/>
		<polygon class="st3" points="839.15,272.5 837.35,272.5 837.35,130.01 811.9,130.01 811.9,195.75 810.1,195.75 810.1,128.21 
			839.15,128.21 		"/>
		<polygon class="st3" points="849.15,232 847.35,232 847.35,227.9 841,227.9 841,226.1 849.15,226.1 		"/>
		<polygon class="st3" points="880.9,299 879.1,299 879.1,224.4 871.85,224.4 871.85,204.4 858.15,204.4 858.15,212.65 
			853.4,212.65 853.4,236.15 846.03,236.15 846.03,299 844.22,299 844.22,234.35 851.6,234.35 851.6,210.85 856.35,210.85 
			856.35,202.6 873.65,202.6 873.65,222.6 880.9,222.6 		"/>
		<rect x="65.25" y="203.25" class="st3" width="2.24" height="5"/>
		<rect x="69.32" y="203.25" class="st3" width="2.24" height="5"/>
		<rect x="73.39" y="203.25" class="st3" width="2.24" height="5"/>
		<rect x="65.25" y="211.67" class="st3" width="2.24" height="5"/>
		<rect x="69.32" y="211.67" class="st3" width="2.24" height="5"/>
		<rect x="65.25" y="220.08" class="st3" width="2.24" height="5"/>
		<rect x="73.39" y="220.08" class="st3" width="2.24" height="5"/>
		<rect x="65.25" y="228.5" class="st3" width="2.24" height="5"/>
		<rect x="69.32" y="228.5" class="st3" width="2.24" height="5"/>
		<rect x="73.39" y="228.5" class="st3" width="2.24" height="5"/>
		<rect x="65.25" y="236.92" class="st3" width="2.24" height="5"/>
		<rect x="69.32" y="236.92" class="st3" width="2.24" height="5"/>
		<rect x="65.25" y="245.33" class="st3" width="2.24" height="5"/>
		<rect x="65.25" y="253.75" class="st3" width="2.24" height="5"/>
		<rect x="65.25" y="262.17" class="st3" width="2.24" height="5"/>
		<rect x="33.5" y="268.67" class="st3" width="2.62" height="4.67"/>
		<rect x="38.5" y="273.17" class="st3" width="2.62" height="4.67"/>
		<rect x="57.67" y="288" class="st3" width="17.96" height="1.75"/>
		<rect x="57.67" y="292.25" class="st3" width="17.96" height="1.75"/>
		<rect x="57.67" y="296.51" class="st3" width="17.96" height="1.75"/>
		<rect x="82.17" y="250.33" class="st3" width="5.08" height="1.92"/>
		<rect x="90.58" y="250.33" class="st3" width="5.08" height="1.92"/>
		<rect x="82.17" y="255.29" class="st3" width="5.08" height="1.92"/>
		<rect x="90.58" y="255.29" class="st3" width="5.08" height="1.92"/>
		<rect x="99" y="255.29" class="st3" width="5.08" height="1.92"/>
		<rect x="82.17" y="260.25" class="st3" width="5.08" height="1.92"/>
		<rect x="90.58" y="260.25" class="st3" width="5.08" height="1.92"/>
		<rect x="99" y="260.25" class="st3" width="5.08" height="1.92"/>
		<rect x="107.42" y="260.25" class="st3" width="5.08" height="1.92"/>
		<rect x="90.58" y="265.21" class="st3" width="5.08" height="1.92"/>
		<rect x="82.17" y="275.23" class="st3" width="5.08" height="1.92"/>
		<rect x="90.58" y="275.23" class="st3" width="5.08" height="1.92"/>
		<rect x="90.58" y="280.19" class="st3" width="5.08" height="1.92"/>
		<rect x="99" y="265.21" class="st3" width="5.08" height="1.92"/>
		<rect x="107.42" y="265.21" class="st3" width="5.08" height="1.92"/>
		<rect x="115" y="276.19" class="st3" width="22.75" height="1.65"/>
		<rect x="115" y="284.18" class="st3" width="22.75" height="1.65"/>
		<rect x="115" y="292.17" class="st3" width="22.75" height="1.65"/>
		<rect x="104.08" y="275.5" class="st3" width="1.42" height="5"/>
		<rect x="107.42" y="275.5" class="st3" width="1.42" height="5"/>
		<rect x="104.08" y="283" class="st3" width="1.42" height="5"/>
		<rect x="107.42" y="283" class="st3" width="1.42" height="5"/>
		<rect x="104.08" y="290.5" class="st3" width="1.42" height="5"/>
		<rect x="107.42" y="290.5" class="st3" width="1.42" height="5"/>
		<rect x="141" y="241.92" class="st3" width="4.33" height="1.58"/>
		<rect x="147.33" y="241.92" class="st3" width="4.33" height="1.58"/>
		<rect x="147.33" y="245.29" class="st3" width="4.33" height="1.58"/>
		<rect x="141" y="248.67" class="st3" width="4.33" height="1.58"/>
		<rect x="147.33" y="248.67" class="st3" width="4.33" height="1.58"/>
		<rect x="141" y="252.04" class="st3" width="4.33" height="1.58"/>
		<rect x="144.17" y="267.02" class="st3" width="4.33" height="1.58"/>
		<rect x="135" y="263.88" class="st3" width="4.33" height="1.58"/>
		<rect x="144.17" y="270.4" class="st3" width="4.33" height="1.58"/>
		<rect x="135" y="267.25" class="st3" width="4.33" height="1.58"/>
		<rect x="166.5" y="267.81" class="st3" width="4" height="1.85"/>
		<rect x="166.5" y="272.41" class="st3" width="4" height="1.85"/>
		<rect x="166.5" y="277" class="st3" width="4" height="1.85"/>
		<rect x="166.5" y="281.59" class="st3" width="4" height="1.85"/>
		<rect x="166.5" y="286.19" class="st3" width="4" height="1.85"/>
		<rect x="166.5" y="290.78" class="st3" width="4" height="1.85"/>
		<rect x="174.67" y="245.29" class="st3" width="3.33" height="1.58"/>
		<rect x="168.5" y="248.67" class="st3" width="3.33" height="1.58"/>
		<rect x="174.67" y="248.67" class="st3" width="3.33" height="1.58"/>
		<rect x="168.5" y="252.04" class="st3" width="3.33" height="1.58"/>
		<rect x="185.67" y="275.11" class="st3" width="3.33" height="1.58"/>
		<rect x="179.5" y="278.49" class="st3" width="3.33" height="1.58"/>
		<rect x="185.67" y="278.49" class="st3" width="3.33" height="1.58"/>
		<rect x="179.5" y="281.86" class="st3" width="3.33" height="1.58"/>
		<rect x="185.67" y="288" class="st3" width="3.33" height="1.58"/>
		<rect x="179.5" y="291.38" class="st3" width="3.33" height="1.58"/>
		<rect x="185.67" y="291.38" class="st3" width="3.33" height="1.58"/>
		<rect x="179.5" y="294.75" class="st3" width="3.33" height="1.58"/>
		<rect x="192.33" y="229.67" class="st3" width="1.33" height="12.33"/>
		<rect x="195" y="229.67" class="st3" width="1.33" height="12.33"/>
		<rect x="218.83" y="234" class="st3" width="1.5" height="3.67"/>
		<rect x="222.17" y="234" class="st3" width="1.5" height="3.67"/>
		<rect x="225.5" y="234" class="st3" width="1.5" height="3.67"/>
		<rect x="228.83" y="234" class="st3" width="1.5" height="3.67"/>
		<rect x="232.17" y="234" class="st3" width="1.5" height="3.67"/>
		<rect x="235.5" y="234" class="st3" width="1.5" height="3.67"/>
		<rect x="238.83" y="234" class="st3" width="1.5" height="3.67"/>
		<rect x="215.5" y="243.46" class="st3" width="1.5" height="3.67"/>
		<rect x="218.83" y="243.46" class="st3" width="1.5" height="3.67"/>
		<rect x="222.17" y="243.46" class="st3" width="1.5" height="3.67"/>
		<rect x="225.5" y="243.46" class="st3" width="1.5" height="3.67"/>
		<rect x="228.83" y="243.46" class="st3" width="1.5" height="3.67"/>
		<rect x="232.17" y="243.46" class="st3" width="1.5" height="3.67"/>
		<rect x="235.5" y="243.46" class="st3" width="1.5" height="3.67"/>
		<rect x="215.5" y="252.92" class="st3" width="1.5" height="3.67"/>
		<rect x="218.83" y="252.92" class="st3" width="1.5" height="3.67"/>
		<rect x="222.17" y="252.92" class="st3" width="1.5" height="3.67"/>
		<rect x="225.5" y="252.92" class="st3" width="1.5" height="3.67"/>
		<rect x="228.83" y="252.92" class="st3" width="1.5" height="3.67"/>
		<rect x="218.83" y="262.17" class="st3" width="1.5" height="3.67"/>
		<rect x="222.17" y="262.17" class="st3" width="1.5" height="3.67"/>
		<rect x="225.5" y="262.17" class="st3" width="1.5" height="3.67"/>
		<rect x="228.83" y="262.17" class="st3" width="1.5" height="3.67"/>
		<rect x="212.67" y="280.07" class="st3" width="1" height="4.09"/>
		<rect x="212.67" y="292.92" class="st3" width="1" height="4.09"/>
		<rect x="215.83" y="280.07" class="st3" width="1" height="4.09"/>
		<rect x="215.83" y="286.5" class="st3" width="1" height="4.09"/>
		<rect x="215.83" y="292.92" class="st3" width="1" height="4.09"/>
		<rect x="219" y="280.07" class="st3" width="1" height="4.09"/>
		<rect x="219" y="292.92" class="st3" width="1" height="4.09"/>
		<rect x="222.17" y="280.07" class="st3" width="1" height="4.09"/>
		<rect x="222.17" y="286.5" class="st3" width="1" height="4.09"/>
		<rect x="225.33" y="286.5" class="st3" width="1" height="4.09"/>
		<rect x="225.33" y="292.92" class="st3" width="1" height="4.09"/>
		<rect x="228.5" y="280.07" class="st3" width="1" height="4.09"/>
		<rect x="228.5" y="286.5" class="st3" width="1" height="4.09"/>
		<rect x="238.83" y="275.11" class="st3" width="1.89" height="1.89"/>
		<rect x="243.67" y="275.11" class="st3" width="1.89" height="1.89"/>
		<rect x="248.5" y="275.11" class="st3" width="1.89" height="1.89"/>
		<rect x="243.67" y="281.27" class="st3" width="1.89" height="1.89"/>
		<rect x="248.5" y="281.27" class="st3" width="1.89" height="1.89"/>
		<rect x="238.83" y="287.42" class="st3" width="1.89" height="1.89"/>
		<rect x="243.67" y="287.42" class="st3" width="1.89" height="1.89"/>
		<rect x="238.83" y="293.58" class="st3" width="1.89" height="1.89"/>
		<rect x="243.67" y="293.58" class="st3" width="1.89" height="1.89"/>
		<rect x="248.5" y="293.58" class="st3" width="1.89" height="1.89"/>
		<rect x="261" y="275.11" class="st3" width="1.89" height="1.89"/>
		<rect x="256.17" y="281.27" class="st3" width="1.89" height="1.89"/>
		<rect x="261" y="281.27" class="st3" width="1.89" height="1.89"/>
		<rect x="256.17" y="287.42" class="st3" width="1.89" height="1.89"/>
		<rect x="261" y="287.42" class="st3" width="1.89" height="1.89"/>
		<rect x="261" y="293.58" class="st3" width="1.89" height="1.89"/>
		<rect x="271.5" y="275.11" class="st3" width="1.89" height="1.89"/>
		<rect x="266.67" y="281.27" class="st3" width="1.89" height="1.89"/>
		<rect x="271.5" y="281.27" class="st3" width="1.89" height="1.89"/>
		<rect x="271.5" y="287.42" class="st3" width="1.89" height="1.89"/>
		<rect x="266.67" y="293.58" class="st3" width="1.89" height="1.89"/>
		<rect x="284.28" y="259.49" class="st3" width="1.89" height="1.89"/>
		<rect x="279.45" y="265.65" class="st3" width="1.89" height="1.89"/>
		<rect x="284.28" y="265.65" class="st3" width="1.89" height="1.89"/>
		<rect x="279.45" y="271.8" class="st3" width="1.89" height="1.89"/>
		<rect x="284.28" y="271.8" class="st3" width="1.89" height="1.89"/>
		<rect x="284.28" y="277.95" class="st3" width="1.89" height="1.89"/>
		<rect x="289.95" y="265.65" class="st3" width="1.89" height="1.89"/>
		<rect x="289.95" y="277.95" class="st3" width="1.89" height="1.89"/>
		<rect x="271.5" y="293.58" class="st3" width="1.89" height="1.89"/>
		<rect x="281.28" y="217.67" class="st3" width="2.78" height="2.78"/>
		<rect x="285.89" y="217.67" class="st3" width="2.78" height="2.78"/>
		<rect x="276.67" y="222.55" class="st3" width="2.78" height="2.78"/>
		<rect x="285.89" y="222.55" class="st3" width="2.78" height="2.78"/>
		<rect x="295.1" y="222.55" class="st3" width="2.78" height="2.78"/>
		<rect x="281.28" y="227.44" class="st3" width="2.78" height="2.78"/>
		<rect x="285.89" y="227.44" class="st3" width="2.78" height="2.78"/>
		<rect x="290.49" y="227.44" class="st3" width="2.78" height="2.78"/>
		<rect x="276.67" y="232.32" class="st3" width="2.78" height="2.78"/>
		<rect x="281.28" y="232.32" class="st3" width="2.78" height="2.78"/>
		<rect x="295.1" y="232.32" class="st3" width="2.78" height="2.78"/>
		<rect x="276.67" y="237.21" class="st3" width="2.78" height="2.78"/>
		<rect x="285.89" y="237.21" class="st3" width="2.78" height="2.78"/>
		<rect x="290.49" y="237.21" class="st3" width="2.78" height="2.78"/>
		<rect x="281.28" y="242.09" class="st3" width="2.78" height="2.78"/>
		<rect x="290.49" y="242.09" class="st3" width="2.78" height="2.78"/>
		<rect x="295.1" y="242.09" class="st3" width="2.78" height="2.78"/>
		<rect x="304.33" y="198.67" class="st3" width="18" height="1.5"/>
		<rect x="304.33" y="203.17" class="st3" width="18" height="1.5"/>
		
			<rect x="322.33" y="207.67" transform="matrix(-1 -1.224647e-16 1.224647e-16 -1 651.3333 416.8334)" class="st3" width="6.67" height="1.5"/>
		
			<rect x="322.33" y="212.17" transform="matrix(-1 -1.224647e-16 1.224647e-16 -1 651.3333 425.8334)" class="st3" width="6.67" height="1.5"/>
		<rect x="304.33" y="216.67" class="st3" width="18" height="1.5"/>
		<rect x="304.33" y="221.17" class="st3" width="18" height="1.5"/>
		<rect x="304.33" y="225.67" class="st3" width="18" height="1.5"/>
		
			<rect x="322.33" y="230.17" transform="matrix(-1 -1.224647e-16 1.224647e-16 -1 651.3333 461.8334)" class="st3" width="6.67" height="1.5"/>
		
			<rect x="322.33" y="234.67" transform="matrix(-1 -1.224647e-16 1.224647e-16 -1 651.3333 470.8334)" class="st3" width="6.67" height="1.5"/>
		<rect x="304.33" y="239.17" class="st3" width="18" height="1.5"/>
		<rect x="302" y="270.67" class="st3" width="1" height="3.83"/>
		<rect x="305" y="270.67" class="st3" width="1" height="3.83"/>
		<rect x="308" y="270.67" class="st3" width="1" height="3.83"/>
		<rect x="311" y="270.67" class="st3" width="1" height="3.83"/>
		<rect x="314" y="270.67" class="st3" width="1" height="3.83"/>
		<rect x="317" y="270.67" class="st3" width="1" height="3.83"/>
		<rect x="320" y="270.67" class="st3" width="1" height="3.83"/>
		<rect x="307.65" y="277.65" class="st3" width="2.5" height="2.5"/>
		<rect x="318.73" y="277.65" class="st3" width="2.5" height="2.5"/>
		<rect x="302.1" y="284.25" class="st3" width="2.5" height="2.5"/>
		<rect x="313.19" y="284.25" class="st3" width="2.5" height="2.5"/>
		<rect x="318.73" y="284.25" class="st3" width="2.5" height="2.5"/>
		<rect x="302.1" y="290.85" class="st3" width="2.5" height="2.5"/>
		<rect x="307.65" y="290.85" class="st3" width="2.5" height="2.5"/>
		<rect x="313.19" y="290.85" class="st3" width="2.5" height="2.5"/>
		<rect x="350.6" y="243.48" class="st3" width="1.8" height="26.02"/>
		<rect x="357.6" y="243.48" class="st3" width="1.8" height="26.02"/>
		<rect x="364.6" y="243.48" class="st3" width="1.8" height="26.02"/>
		<rect x="393.5" y="238.27" class="st3" width="7.5" height="1.8"/>
		<rect x="393.5" y="242.36" class="st3" width="7.5" height="1.8"/>
		<rect x="393.5" y="246.45" class="st3" width="7.5" height="1.8"/>
		<rect x="393.5" y="256.38" class="st3" width="7.5" height="1.8"/>
		<rect x="393.5" y="260.48" class="st3" width="7.5" height="1.8"/>
		<rect x="393.5" y="264.57" class="st3" width="7.5" height="1.8"/>
		<rect x="413.5" y="184" class="st3" width="3.12" height="3.12"/>
		<rect x="418" y="184" class="st3" width="3.12" height="3.12"/>
		<rect x="422.5" y="184" class="st3" width="3.12" height="3.12"/>
		<rect x="427" y="184" class="st3" width="3.12" height="3.12"/>
		<rect x="431.5" y="184" class="st3" width="3.12" height="3.12"/>
		<rect x="418" y="188.69" class="st3" width="3.12" height="3.12"/>
		<rect x="422.5" y="188.69" class="st3" width="3.12" height="3.12"/>
		<rect x="427" y="188.69" class="st3" width="3.12" height="3.12"/>
		<rect x="431.5" y="188.69" class="st3" width="3.12" height="3.12"/>
		<rect x="436" y="188.69" class="st3" width="3.12" height="3.12"/>
		<rect x="413.5" y="198.84" class="st3" width="3.12" height="3.13"/>
		<rect x="418" y="198.84" class="st3" width="3.12" height="3.13"/>
		<rect x="422.5" y="198.84" class="st3" width="3.12" height="3.13"/>
		<rect x="427" y="198.84" class="st3" width="3.12" height="3.13"/>
		<rect x="431.5" y="198.84" class="st3" width="3.12" height="3.13"/>
		<rect x="418" y="203.53" class="st3" width="3.12" height="3.13"/>
		<rect x="422.5" y="203.53" class="st3" width="3.12" height="3.13"/>
		<rect x="427" y="203.53" class="st3" width="3.12" height="3.13"/>
		<rect x="431.5" y="203.53" class="st3" width="3.12" height="3.13"/>
		<rect x="436" y="203.53" class="st3" width="3.12" height="3.13"/>
		<rect x="413.5" y="213.69" class="st3" width="3.12" height="3.12"/>
		<rect x="418" y="213.69" class="st3" width="3.12" height="3.12"/>
		<rect x="422.5" y="213.69" class="st3" width="3.12" height="3.12"/>
		<rect x="427" y="213.69" class="st3" width="3.12" height="3.12"/>
		<rect x="418" y="218.38" class="st3" width="3.12" height="3.12"/>
		<rect x="422.5" y="218.38" class="st3" width="3.12" height="3.12"/>
		<rect x="437.56" y="227" class="st3" width="25.69" height="1.83"/>
		<rect x="437.56" y="235.42" class="st3" width="25.69" height="1.83"/>
		<rect x="437.56" y="239.63" class="st3" width="25.69" height="1.83"/>
		<rect x="437.56" y="248.05" class="st3" width="25.69" height="1.83"/>
		<rect x="437.56" y="252.27" class="st3" width="25.69" height="1.83"/>
		<rect x="328" y="290.21" class="st3" width="236" height="1.8"/>
		<rect x="329.8" y="285.5" class="st3" width="2.5" height="2.5"/>
		<rect x="338.38" y="285.5" class="st3" width="2.5" height="2.5"/>
		<rect x="346.95" y="285.5" class="st3" width="2.5" height="2.5"/>
		<rect x="355.52" y="285.5" class="st3" width="2.5" height="2.5"/>
		<rect x="364.09" y="285.5" class="st3" width="2.5" height="2.5"/>
		<rect x="372.66" y="285.5" class="st3" width="2.5" height="2.5"/>
		<rect x="381.23" y="285.5" class="st3" width="2.5" height="2.5"/>
		<rect x="389.8" y="285.5" class="st3" width="2.5" height="2.5"/>
		<rect x="398.37" y="285.5" class="st3" width="2.5" height="2.5"/>
		<rect x="406.94" y="285.5" class="st3" width="2.5" height="2.5"/>
		<rect x="415.51" y="285.5" class="st3" width="2.5" height="2.5"/>
		<rect x="424.08" y="285.5" class="st3" width="2.5" height="2.5"/>
		<rect x="432.65" y="285.5" class="st3" width="2.5" height="2.5"/>
		<rect x="441.22" y="285.5" class="st3" width="2.5" height="2.5"/>
		<rect x="449.79" y="285.5" class="st3" width="2.5" height="2.5"/>
		<rect x="458.36" y="285.5" class="st3" width="2.5" height="2.5"/>
		<rect x="466.93" y="285.5" class="st3" width="2.5" height="2.5"/>
		<rect x="475.5" y="285.5" class="st3" width="2.5" height="2.5"/>
		<rect x="484.07" y="285.5" class="st3" width="2.5" height="2.5"/>
		<rect x="492.64" y="285.5" class="st3" width="2.5" height="2.5"/>
		<rect x="501.21" y="285.5" class="st3" width="2.5" height="2.5"/>
		<rect x="509.78" y="285.5" class="st3" width="2.5" height="2.5"/>
		<rect x="518.35" y="285.5" class="st3" width="2.5" height="2.5"/>
		<rect x="526.92" y="285.5" class="st3" width="2.5" height="2.5"/>
		<rect x="535.49" y="285.5" class="st3" width="2.5" height="2.5"/>
		<rect x="544.06" y="285.5" class="st3" width="2.5" height="2.5"/>
		<rect x="552.64" y="285.5" class="st3" width="2.5" height="2.5"/>
		<rect x="561.21" y="285.5" class="st3" width="2.5" height="2.5"/>
		<path class="st3" d="M521.75,216.42H505.1v-0.9c0-5.45,3.74-9.88,8.33-9.88c4.59,0,8.33,4.43,8.33,9.88V216.42z M506.94,214.62
			h12.97c-0.36-4.04-3.13-7.18-6.49-7.18C510.07,207.43,507.3,210.58,506.94,214.62z"/>
		<rect x="519.95" y="219.38" class="st3" width="1.8" height="31.62"/>
		<rect x="484.07" y="223.31" class="st3" width="17.14" height="1.8"/>
		<rect x="484.07" y="227.93" class="st3" width="17.14" height="1.8"/>
		<rect x="484.07" y="232.55" class="st3" width="17.14" height="1.8"/>
		<rect x="484.07" y="237.17" class="st3" width="17.14" height="1.8"/>
		<rect x="484.07" y="241.79" class="st3" width="17.14" height="1.8"/>
		<rect x="491.74" y="221.5" class="st3" width="1.8" height="25.75"/>
		<rect x="587.5" y="220.33" class="st3" width="6.25" height="2.33"/>
		<rect x="596.12" y="220.33" class="st3" width="6.25" height="2.33"/>
		<rect x="587.5" y="233.58" class="st3" width="6.25" height="2.33"/>
		<rect x="596.12" y="233.58" class="st3" width="6.25" height="2.33"/>
		<rect x="587.5" y="246.83" class="st3" width="6.25" height="2.33"/>
		<rect x="596.12" y="246.83" class="st3" width="6.25" height="2.33"/>
		<rect x="587.5" y="260.08" class="st3" width="6.25" height="2.33"/>
		<rect x="596.12" y="260.08" class="st3" width="6.25" height="2.33"/>
		<rect x="587.5" y="273.33" class="st3" width="6.25" height="2.33"/>
		<rect x="575.12" y="246.83" class="st3" width="6.25" height="2.33"/>
		<rect x="575.12" y="260.08" class="st3" width="6.25" height="2.33"/>
		<rect x="575.12" y="273.33" class="st3" width="6.25" height="2.33"/>
		<rect x="596.12" y="273.33" class="st3" width="6.25" height="2.33"/>
		<rect x="605.75" y="182.33" class="st3" width="28.75" height="2.42"/>
		<rect x="605.75" y="187.33" class="st3" width="28.75" height="2.42"/>
		<rect x="605.75" y="192.33" class="st3" width="28.75" height="2.42"/>
		<rect x="621.25" y="203.54" class="st3" width="13.25" height="2.42"/>
		<rect x="621.25" y="208.54" class="st3" width="13.25" height="2.42"/>
		<rect x="621.25" y="213.54" class="st3" width="13.25" height="2.42"/>
		<rect x="621.25" y="231.86" class="st3" width="13.25" height="2.42"/>
		<rect x="621.25" y="236.86" class="st3" width="13.25" height="2.42"/>
		<rect x="621.25" y="241.86" class="st3" width="13.25" height="2.42"/>
		<rect x="621.25" y="260.18" class="st3" width="13.25" height="2.42"/>
		<rect x="621.25" y="265.18" class="st3" width="13.25" height="2.42"/>
		<rect x="621.25" y="270.18" class="st3" width="13.25" height="2.42"/>
		<rect x="668" y="194.3" class="st3" width="6.62" height="2.42"/>
		<rect x="668" y="199.3" class="st3" width="6.62" height="2.42"/>
		<rect x="668" y="204.3" class="st3" width="6.62" height="2.42"/>
		<rect x="668" y="222.62" class="st3" width="6.62" height="2.42"/>
		<rect x="668" y="227.62" class="st3" width="6.62" height="2.42"/>
		<rect x="668" y="232.62" class="st3" width="6.62" height="2.42"/>
		<rect x="668" y="250.94" class="st3" width="6.62" height="2.42"/>
		<rect x="668" y="255.94" class="st3" width="6.62" height="2.42"/>
		<rect x="668" y="260.94" class="st3" width="6.62" height="2.42"/>
		<rect x="695.62" y="194.3" class="st3" width="6.62" height="2.42"/>
		<rect x="695.62" y="199.3" class="st3" width="6.62" height="2.42"/>
		<rect x="695.62" y="204.3" class="st3" width="6.62" height="2.42"/>
		<rect x="695.62" y="222.62" class="st3" width="6.62" height="2.42"/>
		<rect x="695.62" y="227.62" class="st3" width="6.62" height="2.42"/>
		<rect x="695.62" y="232.62" class="st3" width="6.62" height="2.42"/>
		<rect x="695.62" y="250.94" class="st3" width="6.62" height="2.42"/>
		<rect x="695.62" y="255.94" class="st3" width="6.62" height="2.42"/>
		<rect x="695.62" y="260.94" class="st3" width="6.62" height="2.42"/>
		<rect x="708.75" y="199.75" class="st3" width="6.62" height="2.42"/>
		<rect x="708.75" y="204.75" class="st3" width="6.62" height="2.42"/>
		<rect x="708.75" y="209.75" class="st3" width="6.62" height="2.42"/>
		<rect x="708.75" y="228.07" class="st3" width="6.62" height="2.42"/>
		<rect x="708.75" y="233.07" class="st3" width="6.62" height="2.42"/>
		<rect x="708.75" y="238.07" class="st3" width="6.62" height="2.42"/>
		<rect x="708.75" y="256.39" class="st3" width="6.62" height="2.42"/>
		<rect x="708.75" y="261.39" class="st3" width="6.62" height="2.42"/>
		<rect x="708.75" y="266.39" class="st3" width="6.62" height="2.42"/>
		<rect x="682.5" y="204.75" class="st3" width="6.62" height="2.42"/>
		<rect x="682.5" y="209.75" class="st3" width="6.62" height="2.42"/>
		<rect x="682.5" y="214.75" class="st3" width="6.62" height="2.42"/>
		<rect x="682.5" y="233.07" class="st3" width="6.62" height="2.42"/>
		<rect x="682.5" y="238.07" class="st3" width="6.62" height="2.42"/>
		<rect x="682.5" y="243.07" class="st3" width="6.62" height="2.42"/>
		<rect x="652" y="188.54" class="st3" width="1.5" height="87.12"/>
		<polygon class="st3" points="761.65,291.75 759.85,291.75 759.85,272.23 754.59,272.23 754.45,272.18 741.84,267.7 725.5,267.7 
			725.5,265.9 742.16,265.9 742.3,265.95 754.91,270.43 761.65,270.43 		"/>
		<rect x="745.6" y="168.25" class="st3" width="1.8" height="95.55"/>
		<rect x="715.38" y="180.1" class="st3" width="31.12" height="1.8"/>
		<rect x="730" y="186.43" class="st3" width="16.5" height="1.8"/>
		<rect x="730" y="192.77" class="st3" width="16.5" height="1.8"/>
		<rect x="730" y="199.1" class="st3" width="16.5" height="1.8"/>
		<rect x="735.25" y="205.43" class="st3" width="11.25" height="1.8"/>
		<rect x="735.25" y="211.77" class="st3" width="11.25" height="1.8"/>
		<rect x="735.25" y="218.1" class="st3" width="11.25" height="1.8"/>
		<rect x="739.25" y="224.43" class="st3" width="7.25" height="1.8"/>
		<rect x="739.25" y="230.77" class="st3" width="7.25" height="1.8"/>
		<rect x="761.75" y="192.33" class="st3" width="6.25" height="1.97"/>
		<rect x="769.88" y="192.33" class="st3" width="6.25" height="1.97"/>
		<rect x="778" y="192.33" class="st3" width="6.25" height="1.97"/>
		<rect x="761.75" y="196.72" class="st3" width="6.25" height="1.97"/>
		<rect x="769.88" y="196.72" class="st3" width="6.25" height="1.97"/>
		<rect x="778" y="196.72" class="st3" width="6.25" height="1.97"/>
		<rect x="761.75" y="201.1" class="st3" width="6.25" height="1.97"/>
		<rect x="769.88" y="201.1" class="st3" width="6.25" height="1.97"/>
		<rect x="778" y="201.1" class="st3" width="6.25" height="1.97"/>
		<rect x="761.75" y="205.49" class="st3" width="6.25" height="1.97"/>
		<rect x="769.88" y="205.49" class="st3" width="6.25" height="1.97"/>
		<rect x="778" y="205.49" class="st3" width="6.25" height="1.97"/>
		<rect x="761.75" y="231.71" class="st3" width="6.25" height="1.97"/>
		<rect x="769.88" y="231.71" class="st3" width="6.25" height="1.97"/>
		<rect x="778" y="231.71" class="st3" width="6.25" height="1.97"/>
		<rect x="761.75" y="236.1" class="st3" width="6.25" height="1.97"/>
		<rect x="769.88" y="236.1" class="st3" width="6.25" height="1.97"/>
		<rect x="778" y="236.1" class="st3" width="6.25" height="1.97"/>
		<rect x="761.75" y="240.48" class="st3" width="6.25" height="1.97"/>
		<rect x="769.88" y="240.48" class="st3" width="6.25" height="1.97"/>
		<rect x="778" y="240.48" class="st3" width="6.25" height="1.97"/>
		<rect x="761.75" y="244.87" class="st3" width="6.25" height="1.97"/>
		<rect x="769.88" y="244.87" class="st3" width="6.25" height="1.97"/>
		<rect x="778" y="244.87" class="st3" width="6.25" height="1.97"/>
		<rect x="773.94" y="265.54" class="st3" width="6.25" height="1.97"/>
		<rect x="782.06" y="265.54" class="st3" width="6.25" height="1.97"/>
		<rect x="773.94" y="269.93" class="st3" width="6.25" height="1.97"/>
		<rect x="782.06" y="269.93" class="st3" width="6.25" height="1.97"/>
		<rect x="773.94" y="274.31" class="st3" width="6.25" height="1.97"/>
		<rect x="782.06" y="274.31" class="st3" width="6.25" height="1.97"/>
		<rect x="773.94" y="278.7" class="st3" width="6.25" height="1.97"/>
		<rect x="782.06" y="278.7" class="st3" width="6.25" height="1.97"/>
		<rect x="814" y="156" class="st3" width="5.5" height="2"/>
		<rect x="821.88" y="156" class="st3" width="5.5" height="2"/>
		<rect x="829.75" y="156" class="st3" width="5.5" height="2"/>
		<rect x="814" y="160" class="st3" width="5.5" height="2"/>
		<rect x="821.88" y="160" class="st3" width="5.5" height="2"/>
		<rect x="829.75" y="160" class="st3" width="5.5" height="2"/>
		<rect x="814" y="164" class="st3" width="5.5" height="2"/>
		<rect x="821.88" y="164" class="st3" width="5.5" height="2"/>
		<rect x="829.75" y="164" class="st3" width="5.5" height="2"/>
		<rect x="814" y="168" class="st3" width="5.5" height="2"/>
		<rect x="821.88" y="168" class="st3" width="5.5" height="2"/>
		<rect x="829.75" y="168" class="st3" width="5.5" height="2"/>
		<rect x="821.88" y="205.17" class="st3" width="5.5" height="2"/>
		<rect x="829.75" y="205.17" class="st3" width="5.5" height="2"/>
		<rect x="821.88" y="209.17" class="st3" width="5.5" height="2"/>
		<rect x="829.75" y="209.17" class="st3" width="5.5" height="2"/>
		<rect x="821.88" y="213.17" class="st3" width="5.5" height="2"/>
		<rect x="829.75" y="213.17" class="st3" width="5.5" height="2"/>
		<rect x="821.88" y="217.17" class="st3" width="5.5" height="2"/>
		<rect x="829.75" y="217.17" class="st3" width="5.5" height="2"/>
		<rect x="814" y="225.07" class="st3" width="5.5" height="2"/>
		<rect x="821.88" y="225.07" class="st3" width="5.5" height="2"/>
		<rect x="814" y="229.07" class="st3" width="5.5" height="2"/>
		<rect x="821.88" y="229.07" class="st3" width="5.5" height="2"/>
		<rect x="814.38" y="240.07" class="st3" width="5.5" height="2"/>
		<rect x="822.25" y="240.07" class="st3" width="5.5" height="2"/>
		<rect x="814.38" y="244.07" class="st3" width="5.5" height="2"/>
		<rect x="822.25" y="244.07" class="st3" width="5.5" height="2"/>
		<rect x="867.6" y="208.54" class="st3" width="1.8" height="90.46"/>
		<rect x="862.85" y="217.96" class="st3" width="1.8" height="81.04"/>
		<rect x="858.1" y="232.29" class="st3" width="1.8" height="66.71"/>
		<rect x="818.97" y="125" class="st3" width="1.8" height="4.11"/>
		<rect x="816.75" y="124.1" class="st3" width="15.75" height="1.8"/>
		<rect x="416.76" y="170.1" class="st3" width="5.74" height="1.8"/>
		<rect x="426" y="167.33" class="st3" width="9.04" height="4.33"/>
	</g>
</g>
</svg>
